<?xml version="1.0" encoding="UTF-8" standalone="no"?>
<!-- Created with Inkscape (http://www.inkscape.org/) -->

<svg
   xmlns:dc="http://purl.org/dc/elements/1.1/"
   xmlns:cc="http://creativecommons.org/ns#"
   xmlns:rdf="http://www.w3.org/1999/02/22-rdf-syntax-ns#"
   xmlns:svg="http://www.w3.org/2000/svg"
   xmlns="http://www.w3.org/2000/svg"
   xmlns:sodipodi="http://sodipodi.sourceforge.net/DTD/sodipodi-0.dtd"
   xmlns:inkscape="http://www.inkscape.org/namespaces/inkscape"
   width="179.76076mm"
   height="179.76076mm"
   viewBox="0 0 179.76076 179.76076"
   version="1.1"
   id="svg8"
   inkscape:version="0.91 r13725"
   sodipodi:docname="feedback.svg"
   inkscape:export-filename="feedback_g.png"
   inkscape:export-xdpi="4.2399998"
   inkscape:export-ydpi="4.2399998">
  <defs
     id="defs2" />
  <sodipodi:namedview
     id="base"
     pagecolor="#ffffff"
     bordercolor="#666666"
     borderopacity="1.0"
     inkscape:pageopacity="0.0"
     inkscape:pageshadow="2"
     inkscape:zoom="0.7"
     inkscape:cx="-103.34531"
     inkscape:cy="271.90417"
     inkscape:document-units="mm"
     inkscape:current-layer="layer1"
     showgrid="false"
     inkscape:pagecheckerboard="true"
     inkscape:window-width="1920"
     inkscape:window-height="1020"
     inkscape:window-x="0"
     inkscape:window-y="0"
     inkscape:window-maximized="1"
     fit-margin-top="0"
     fit-margin-left="0"
     fit-margin-right="0"
     fit-margin-bottom="0" />
  <metadata
     id="metadata5">
    <rdf:RDF>
      <cc:Work
         rdf:about="">
        <dc:format>image/svg+xml</dc:format>
        <dc:type
           rdf:resource="http://purl.org/dc/dcmitype/StillImage" />
        <dc:title />
      </cc:Work>
    </rdf:RDF>
  </metadata>
  <g
     inkscape:label="Ebene 1"
     inkscape:groupmode="layer"
     id="layer1"
     transform="translate(-10.119618,-107.11962)">
    <circle
       style="fill:none;fill-opacity:1;stroke:#b4b4b4;stroke-width:10.079;stroke-miterlimit:4;stroke-dasharray:none;stroke-opacity:1"
       id="path817"
       cx="100"
       cy="197"
       r="84.840881" />
    <g
       id="g871"
       transform="matrix(3.6620739,0,0,3.6620739,41.406814,138.40682)"
       style="fill:#b4b4b4;fill-opacity:1;stroke:#b4b4b4;stroke-opacity:1">
      <g
         id="g815"
         style="fill:#b4b4b4;fill-opacity:1;stroke:#b4b4b4;stroke-opacity:1">
        <path
           d="M 28,5.5 H 4 c -2.209,0 -4,1.792 -4,4 v 13 c 0,2.209 1.791,4 4,4 h 24 c 2.209,0 4,-1.791 4,-4 v -13 c 0,-2.208 -1.791,-4 -4,-4 z M 2,10.75 8.999,16 2,21.25 Z M 30,22.5 c 0,1.104 -0.898,2 -2,2 H 4 c -1.103,0 -2,-0.896 -2,-2 l 7.832,-5.875 4.368,3.277 c 0.533,0.398 1.166,0.6 1.8,0.6 0.633,0 1.266,-0.201 1.799,-0.6 l 4.369,-3.277 z M 30,21.25 23,16 30,10.75 Z M 17.199,19.102 c -0.349,0.262 -0.763,0.4 -1.199,0.4 -0.436,0 -0.851,-0.139 -1.2,-0.4 L 10.665,16 9.832,15.375 2,9.501 V 9.5 c 0,-1.103 0.897,-2 2,-2 h 24 c 1.102,0 2,0.897 2,2 z"
           style="fill:#b4b4b4;fill-opacity:1;stroke:#b4b4b4;stroke-opacity:1"
           id="mail"
           inkscape:connector-curvature="0" />
      </g>
      <g
         id="g817"
         style="fill:#b4b4b4;fill-opacity:1;stroke:#b4b4b4;stroke-opacity:1" />
      <g
         id="g819"
         style="fill:#b4b4b4;fill-opacity:1;stroke:#b4b4b4;stroke-opacity:1" />
      <g
         id="g821"
         style="fill:#b4b4b4;fill-opacity:1;stroke:#b4b4b4;stroke-opacity:1" />
      <g
         id="g823"
         style="fill:#b4b4b4;fill-opacity:1;stroke:#b4b4b4;stroke-opacity:1" />
      <g
         id="g825"
         style="fill:#b4b4b4;fill-opacity:1;stroke:#b4b4b4;stroke-opacity:1" />
      <g
         id="g827"
         style="fill:#b4b4b4;fill-opacity:1;stroke:#b4b4b4;stroke-opacity:1" />
      <g
         id="g829"
         style="fill:#b4b4b4;fill-opacity:1;stroke:#b4b4b4;stroke-opacity:1" />
      <g
         id="g831"
         style="fill:#b4b4b4;fill-opacity:1;stroke:#b4b4b4;stroke-opacity:1" />
      <g
         id="g833"
         style="fill:#b4b4b4;fill-opacity:1;stroke:#b4b4b4;stroke-opacity:1" />
      <g
         id="g835"
         style="fill:#b4b4b4;fill-opacity:1;stroke:#b4b4b4;stroke-opacity:1" />
      <g
         id="g837"
         style="fill:#b4b4b4;fill-opacity:1;stroke:#b4b4b4;stroke-opacity:1" />
      <g
         id="g839"
         style="fill:#b4b4b4;fill-opacity:1;stroke:#b4b4b4;stroke-opacity:1" />
      <g
         id="g841"
         style="fill:#b4b4b4;fill-opacity:1;stroke:#b4b4b4;stroke-opacity:1" />
      <g
         id="g843"
         style="fill:#b4b4b4;fill-opacity:1;stroke:#b4b4b4;stroke-opacity:1" />
      <g
         id="g845"
         style="fill:#b4b4b4;fill-opacity:1;stroke:#b4b4b4;stroke-opacity:1" />
    </g>
  </g>
</svg>
