<?xml version="1.0" encoding="UTF-8" standalone="no"?>
<!-- Created with Inkscape (http://www.inkscape.org/) -->

<svg
   xmlns:dc="http://purl.org/dc/elements/1.1/"
   xmlns:cc="http://creativecommons.org/ns#"
   xmlns:rdf="http://www.w3.org/1999/02/22-rdf-syntax-ns#"
   xmlns:svg="http://www.w3.org/2000/svg"
   xmlns="http://www.w3.org/2000/svg"
   xmlns:sodipodi="http://sodipodi.sourceforge.net/DTD/sodipodi-0.dtd"
   xmlns:inkscape="http://www.inkscape.org/namespaces/inkscape"
   width="179.76076mm"
   height="179.76076mm"
   viewBox="0 0 179.76076 179.76076"
   version="1.1"
   id="svg8"
   inkscape:version="0.91 r13725"
   sodipodi:docname="reddit.svg"
   inkscape:export-filename="reddit_g.png"
   inkscape:export-xdpi="4.2399998"
   inkscape:export-ydpi="4.2399998">
  <defs
     id="defs2">
    <clipPath
       id="clipPath20">
      <path
         id="path22"
         d="M 0,792 612,792 612,0 0,0 0,792 z" />
    </clipPath>
  </defs>
  <sodipodi:namedview
     id="base"
     pagecolor="#ffffff"
     bordercolor="#666666"
     borderopacity="1.0"
     inkscape:pageopacity="0.0"
     inkscape:pageshadow="2"
     inkscape:zoom="0.98994949"
     inkscape:cx="80.510299"
     inkscape:cy="334.40983"
     inkscape:document-units="mm"
     inkscape:current-layer="layer1"
     showgrid="false"
     inkscape:pagecheckerboard="true"
     inkscape:window-width="1920"
     inkscape:window-height="1020"
     inkscape:window-x="0"
     inkscape:window-y="0"
     inkscape:window-maximized="1"
     fit-margin-top="0"
     fit-margin-left="0"
     fit-margin-right="0"
     fit-margin-bottom="0" />
  <metadata
     id="metadata5">
    <rdf:RDF>
      <cc:Work
         rdf:about="">
        <dc:format>image/svg+xml</dc:format>
        <dc:type
           rdf:resource="http://purl.org/dc/dcmitype/StillImage" />
        <dc:title />
      </cc:Work>
    </rdf:RDF>
  </metadata>
  <g
     inkscape:label="Ebene 1"
     inkscape:groupmode="layer"
     id="layer1"
     transform="translate(-10.119618,-107.11962)">
    <circle
       style="fill:none;fill-opacity:1;stroke:#b4b4b4;stroke-width:10.079;stroke-miterlimit:4;stroke-dasharray:none;stroke-opacity:1"
       id="path817"
       cx="100"
       cy="197"
       r="84.840881" />
    <g
       id="g1287"
       transform="matrix(1.0474158,0,0,1.0474158,-194.82241,28.451309)">
      <g
         style="stroke:#b4b4b4;stroke-opacity:1"
         id="g52"
         transform="matrix(4.531998,0,0,-4.531998,243.63722,159.72806)">
        <path
           sodipodi:nodetypes="cssscsssc"
           style="fill:none;stroke:#b4b4b4;stroke-width:1.10000002;stroke-linecap:butt;stroke-linejoin:miter;stroke-miterlimit:4;stroke-dasharray:none;stroke-opacity:1"
           id="path54"
           d="M -3.7544688,-2.4897656 C -4.077625,-2.3530938 -4.368625,-2.1553125 -4.613,-1.910875 -5.10175,-1.422 -5.404,-0.7465 -5.404,0 c 0,1.493 1.209,2.703 2.701,2.703 0.7465,0 1.3654295,-0.1604488 1.8545545,-0.6495738 -0.008272,-0.1175687 0.0629667,-0.4626891 -0.2643574,-0.6716136 -0.3266182,-0.2084739 -0.7615379,-0.56870097 -1.2067465,-1.09068 -0.5525254,-0.64780126 -0.8298726,-1.14772012 -1.0385005,-1.5732039 -0.208628,-0.4254838 -0.2991938,-0.8358215 -0.3964189,-1.2076943 z"
           inkscape:connector-curvature="0" />
      </g>
      <g
         id="g60"
         transform="matrix(4.531998,0,0,-4.531998,343.8057,159.72806)"
         style="stroke:#b4b4b4;stroke-opacity:1">
        <path
           sodipodi:nodetypes="sssccsss"
           style="fill:none;stroke:#b4b4b4;stroke-width:1.10000002;stroke-linecap:butt;stroke-linejoin:miter;stroke-miterlimit:4;stroke-dasharray:none;stroke-opacity:1"
           id="path62"
           d="m 0,0 c 0,-0.7465 -0.3025,-1.422 -0.791625,-1.910875 -0.2445625,-0.2444375 -0.5160937,-0.5043381 -0.8591719,-0.5788906 0,0 -0.4646696,1.301143 -0.770956,1.67613912 C -2.9750177,0.20236528 -3.6069976,0.64120885 -4.0935782,1.1191667 -4.814056,1.7238045 -4.857375,1.6668125 -4.613,1.911375 -4.12425,2.4005 -3.449,2.703 -2.703,2.703 -1.21,2.703 0,1.493 0,0 Z"
           inkscape:connector-curvature="0" />
      </g>
      <g
         id="g64"
         transform="matrix(4.531998,0,0,-4.531998,315.42316,116.74705)"
         style="stroke:#b4b4b4;stroke-opacity:1">
        <path
           style="fill:none;stroke:#b4b4b4;stroke-width:1.10000002;stroke-linecap:round;stroke-linejoin:round;stroke-miterlimit:4;stroke-dasharray:none;stroke-opacity:1"
           id="path66"
           d="M 0,0 -5.404,1.272 -7.39,-5.006"
           inkscape:connector-curvature="0" />
      </g>
      <g
         id="g80"
         transform="matrix(4.531998,0,0,-4.531998,335.07164,118.72752)"
         style="stroke:#b4b4b4;stroke-opacity:1">
        <path
           style="fill:none;stroke:#b4b4b4;stroke-width:1.10000002;stroke-linecap:butt;stroke-linejoin:miter;stroke-miterlimit:4;stroke-dasharray:none;stroke-opacity:1"
           id="path82"
           d="m 0,0 c 0,-1.176 -0.954,-2.13 -2.129,-2.13 -1.178,0 -2.131,0.954 -2.131,2.13 0,1.177 0.953,2.13 2.131,2.13 C -0.954,2.13 0,1.177 0,0 Z"
           inkscape:connector-curvature="0" />
      </g>
      <g
         id="g96"
         transform="matrix(4.531998,0,0,-4.531998,336.6737,176.57031)"
         style="stroke:#b4b4b4;stroke-opacity:1">
        <path
           style="fill:none;stroke:#b4b4b4;stroke-width:1.10000002;stroke-linecap:butt;stroke-linejoin:miter;stroke-miterlimit:4;stroke-dasharray:none;stroke-opacity:1"
           id="path98"
           d="m 0,0 c 0,-4.411 -5.479,-7.986 -12.239,-7.986 -6.759,0 -12.238,3.575 -12.238,7.986 0,4.411 5.479,7.987 12.238,7.987 C -5.479,7.987 0,4.411 0,0 Z"
           inkscape:connector-curvature="0" />
      </g>
      <g
         id="g160"
         transform="matrix(4.531998,0,0,-4.531998,268.4345,169.50448)"
         style="fill:#b4b4b4;fill-opacity:1;stroke:#b4b4b4;stroke-opacity:1">
        <path
           style="fill:#b4b4b4;fill-opacity:1;stroke:#b4b4b4;stroke-width:1.10000002;stroke-linecap:butt;stroke-linejoin:miter;stroke-miterlimit:4;stroke-dasharray:none;stroke-opacity:1"
           id="path162"
           d="m 0,0 c 0,-0.79 -0.641,-1.43 -1.43,-1.43 -0.791,0 -1.431,0.64 -1.431,1.43 0,0.791 0.64,1.431 1.431,1.431 C -0.641,1.431 0,0.791 0,0 Z"
           inkscape:connector-curvature="0" />
      </g>
      <g
         style="fill:#b4b4b4;fill-opacity:1;stroke:#b4b4b4;stroke-opacity:1"
         id="g168"
         transform="matrix(4.531998,0,0,-4.531998,307.5121,169.50448)">
        <path
           style="fill:#b4b4b4;fill-opacity:1;stroke:#b4b4b4;stroke-width:1.10000002;stroke-linecap:butt;stroke-linejoin:miter;stroke-miterlimit:4;stroke-dasharray:none;stroke-opacity:1"
           id="path170"
           d="m 0,0 c 0,-0.79 -0.64,-1.43 -1.43,-1.43 -0.789,0 -1.43,0.64 -1.43,1.43 0,0.791 0.641,1.431 1.43,1.431 C -0.64,1.431 0,0.791 0,0 Z"
           inkscape:connector-curvature="0" />
      </g>
      <g
         id="g172"
         transform="matrix(4.531998,0,0,-4.531998,262.3163,193.23085)"
         style="stroke:#b4b4b4;stroke-opacity:1">
        <path
           style="fill:none;stroke:#b4b4b4;stroke-width:1.10000002;stroke-linecap:round;stroke-linejoin:miter;stroke-miterlimit:4;stroke-dasharray:none;stroke-opacity:1"
           id="path174"
           d="M 0,0 C 1.066,-1.066 2.786,-1.271 4.212,-1.271"
           inkscape:connector-curvature="0" />
      </g>
      <g
         id="g176"
         transform="matrix(4.531998,0,0,-4.531998,300.63435,193.23085)"
         style="stroke:#b4b4b4;stroke-opacity:1">
        <path
           style="fill:none;stroke:#b4b4b4;stroke-width:1.10000002;stroke-linecap:round;stroke-linejoin:miter;stroke-miterlimit:4;stroke-dasharray:none;stroke-opacity:1"
           id="path178"
           d="M 0,0 C -1.067,-1.066 -2.785,-1.271 -4.212,-1.271"
           inkscape:connector-curvature="0" />
      </g>
    </g>
  </g>
</svg>
