<?xml version="1.0" encoding="UTF-8" standalone="no"?>
<svg xmlns="http://www.w3.org/2000/svg" viewBox="0 0 132 132">
<g transform="matrix(1.3466631,0,0,1.3466631,-22.739936,-22.739936)">
<path style="fill:#ffffff"
	  d="m 66.004,18 c -13.036,0 -14.672,0.057 -19.792,0.29 -5.11,0.234 -8.598,
         1.043 -11.65,2.23 -3.157,1.226 -5.835,2.866 -8.503,5.535 -2.67,2.668
         -4.31,5.346 -5.54,8.502 -1.19,3.053 -2,6.542 -2.23,11.65 C 18.06,
         51.327 18,52.964 18,66 c 0,13.036 0.058,14.667 0.29,19.787 0.235,5.11
         1.044,8.598 2.23,11.65 1.227,3.157 2.867,5.835 5.536,8.503 2.667,2.67
         5.345,4.314 8.5,5.54 3.054,1.187 6.543,1.996 11.652,2.23 5.12,0.233
         6.755,0.29 19.79,0.29 13.037,0 14.668,-0.057 19.788,-0.29 5.11,-0.234
         8.602,-1.043 11.656,-2.23 3.156,-1.226 5.83,-2.87 8.497,-5.54 2.67,
         -2.668 4.31,-5.346 5.54,-8.502 1.18,-3.053 1.99,-6.542 2.23,-11.65
         0.23,-5.12 0.29,-6.752 0.29,-19.788 0,-13.036 -0.06,-14.672 -0.29,
         -19.792 -0.24,-5.11 -1.05,-8.598 -2.23,-11.65 -1.23,-3.157 -2.87,
         -5.835 -5.54,-8.503 -2.67,-2.67 -5.34,-4.31 -8.5,-5.535 -3.06,-1.187
         -6.55,-1.996 -11.66,-2.23 C 80.659,18.057 79.029,18 65.989,18 Z
         m -4.306,8.65 c 1.278,-0.002 2.704,0 4.306,0 12.816,0 14.335,0.046
         19.396,0.276 4.68,0.214 7.22,0.996 8.912,1.653 2.24,0.87 3.837,1.91
         5.516,3.59 1.68,1.68 2.72,3.28 3.592,5.52 0.657,1.69 1.44,4.23 1.653,
         8.91 0.23,5.06 0.28,6.58 0.28,19.39 0,12.81 -0.05,14.33 -0.28,19.39
         -0.214,4.68 -0.996,7.22 -1.653,8.91 -0.87,2.24 -1.912,3.835 -3.592,
         5.514 -1.68,1.68 -3.275,2.72 -5.516,3.59 -1.69,0.66 -4.232,1.44
         -8.912,1.654 -5.06,0.23 -6.58,0.28 -19.396,0.28 -12.817,0 -14.336,
         -0.05 -19.396,-0.28 -4.68,-0.216 -7.22,-0.998 -8.913,-1.655 -2.24,
         -0.87 -3.84,-1.91 -5.52,-3.59 -1.68,-1.68 -2.72,-3.276 -3.592,-5.517
         -0.657,-1.69 -1.44,-4.23 -1.653,-8.91 -0.23,-5.06 -0.276,-6.58 -0.276,
         -19.398 0,-12.818 0.046,-14.33 0.276,-19.39 0.214,-4.68 0.996,-7.22
         1.653,-8.912 0.87,-2.24 1.912,-3.84 3.592,-5.52 1.68,-1.68 3.28,
         -2.72 5.52,-3.592 1.692,-0.66 4.233,-1.44 8.913,-1.655 4.428,-0.2
         6.144,-0.26 15.09,-0.27 z m 29.928,7.97 c -3.18,0 -5.76,2.577 -5.76,
         5.758 0,3.18 2.58,5.76 5.76,5.76 3.18,0 5.76,-2.58 5.76,-5.76 0,-3.18
         -2.58,-5.76 -5.76,-5.76 z m -25.622,6.73 c -13.613,0 -24.65,11.037
         -24.65,24.65 0,13.613 11.037,24.645 24.65,24.645 C 79.617,90.645
         90.65,79.613 90.65,66 90.65,52.387 79.616,41.35 66.003,41.35 Z
         m 0,8.65 c 8.836,0 16,7.163 16,16 0,8.836 -7.164,16 -16,16 -8.837,0
         -16,-7.164 -16,-16 0,-8.837 7.163,-16 16,-16 z"
      />
</g>
</svg>
